<?xml version="1.0" encoding="utf-8"?>
<!-- Generator: Adobe Illustrator 22.1.0, SVG Export Plug-In . SVG Version: 6.00 Build 0)  -->
<svg version="1.1" id="Layer_1" xmlns="http://www.w3.org/2000/svg" xmlns:xlink="http://www.w3.org/1999/xlink" x="0px" y="0px"
	 viewBox="0 0 1920 1080" style="enable-background:new 0 0 1920 1080;" xml:space="preserve">
<style type="text/css">
	.st0{fill:url(#SVGID_1_);}
	.st1{fill:#FFFFFF;}
	.st2{fill:url(#SVGID_2_);}
	.st3{fill:url(#SVGID_3_);}
</style>
<g>
	<g>
		<linearGradient id="SVGID_1_" gradientUnits="userSpaceOnUse" x1="959.8482" y1="738.6842" x2="959.8482" y2="339.8398">
			<stop  offset="0" style="stop-color:#0FB04C"/>
			<stop  offset="1" style="stop-color:#ADD041"/>
		</linearGradient>
		<path class="st0" d="M1091.4,559.8c-8.1-12.2-18-21.2-29.7-27.2c9.8-4.6,18.3-12,25.4-22.3c7.1-10.3,10.6-23.4,10.6-39.4
			c0-20.8-7-38.2-20.9-52c-13.9-13.8-34.4-20.7-61.4-20.7h-19.2v-46.8c0-6.4-5.3-11.6-11.7-11.6h-1c-6.4,0-11.7,5.2-11.7,11.6v46.8
			h-46.6v-46.8c0-6.4-5.3-11.6-11.7-11.6h-1c-6.4,0-11.7,5.2-11.7,11.6v46.9h-26.1c-6.4,0-11.7,5.2-11.7,11.6v1
			c0,6.4,5.3,11.6,11.7,11.6h24.7v54c-26.2,8.4-53.2,16.7-81.2,10.6c-0.7-0.2-1.4,0.1-1.8,0.7c-0.4,0.6-0.4,1.3,0,1.9
			c24.3,35.6,53.5,56.1,83,66v102.5h-24.7c-6.4,0-11.7,5.2-11.7,11.6v1c0,6.4,5.3,11.6,11.7,11.6h26.1v44.6
			c0,6.4,5.3,11.6,11.7,11.6h1c6.4,0,11.7-5.2,11.7-11.6v-44.6h46.6v44.6c0,6.4,5.3,11.6,11.7,11.6h1c6.4,0,11.7-5.2,11.7-11.6
			v-44.6h22c17.7,0,33-3.7,45.9-11.2c12.8-7.4,22.6-17.3,29.3-29.6c6.7-12.3,10-25.5,10-39.6C1103.5,586.1,1099.5,572,1091.4,559.8z
			 M1010.1,422.6c20.2,0,35.6,4.1,46.1,12.2c10.5,8.1,15.8,20.2,15.8,36.1c0,16.2-5.3,28.8-15.8,37.6c-5.6,4.7-12.6,8.1-20.9,10.3
			c-31.1-15-62.3-21.4-94.5-19.6c29.4-7.4,60.8-12,90.8,1.2c0.7,0.3,1.6,0.1,2.1-0.6c0.5-0.7,0.4-1.6-0.1-2.2
			c-37.2-40.2-73.3-38.4-108.3-29v-46H1010.1z M1060.9,642.4c-11.2,10.4-26.8,15.6-46.7,15.6h-88.9V562c35.7,5.2,70.1-2.8,95.2-15.8
			c16.9,1,30.4,6.1,40.4,15.2c11.2,10.3,16.8,23.8,16.8,40.6C1077.7,618.6,1072.1,632,1060.9,642.4z"/>
	</g>
	<path class="st1" d="M959.9,363.3"/>
	<linearGradient id="SVGID_2_" gradientUnits="userSpaceOnUse" x1="912.3987" y1="592.7151" x2="912.3987" y2="555.7841">
		<stop  offset="0" style="stop-color:#0FB04C;stop-opacity:0"/>
		<stop  offset="1" style="stop-color:#0C6A36"/>
	</linearGradient>
	<path class="st2" d="M899.5,555.8c0,0,10.9,4.1,25.8,6.2v30.8c-14.9-2.1-25.8-6.2-25.8-6.2L899.5,555.8z"/>
	<linearGradient id="SVGID_3_" gradientUnits="userSpaceOnUse" x1="1057.865" y1="560.9135" x2="1045.5604" y2="534.5261">
		<stop  offset="0" style="stop-color:#0FB04C;stop-opacity:0"/>
		<stop  offset="1" style="stop-color:#057B3E"/>
	</linearGradient>
	<path class="st3" d="M1020.5,546.2c23.2-3.2,41.2-13.6,41.2-13.6c12.9,6.4,20.9,16,20.9,16s-11,7.6-25,10c0,0-12.2-10.8-35.6-12.3
		L1020.5,546.2z"/>
</g>
</svg>
